<svg width="64" height="64" viewBox="0 0 64 64" fill="none" xmlns="http://www.w3.org/2000/svg">
<g id="icon / tabler-icons / pig" clip-path="url(#clip0_1_14116)">
<path id="Vector" d="M40 29.3334V29.36" stroke="#A21CAF" stroke-width="4" stroke-linecap="round" stroke-linejoin="round"/>
<path id="Vector_2" d="M42.6663 8V18.1413C45.9666 20.051 48.4793 23.0732 49.7543 26.6667H53.3303C54.0376 26.6667 54.7158 26.9476 55.2159 27.4477C55.716 27.9478 55.997 28.6261 55.997 29.3333V34.6667C55.997 35.3739 55.716 36.0522 55.2159 36.5523C54.7158 37.0524 54.0376 37.3333 53.3303 37.3333H49.7517C48.8545 39.8677 47.3341 42.1356 45.3303 43.928V49.3333C45.3303 50.3942 44.9089 51.4116 44.1587 52.1618C43.4086 52.9119 42.3912 53.3333 41.3303 53.3333C40.2695 53.3333 39.252 52.9119 38.5019 52.1618C37.7517 51.4116 37.3303 50.3942 37.3303 49.3333V47.7787C36.4491 47.9263 35.5571 48.0003 34.6637 48H23.997C23.1035 48.0003 22.2115 47.9263 21.3303 47.7787V49.3333C21.3303 50.3942 20.9089 51.4116 20.1587 52.1618C19.4086 52.9119 18.3912 53.3333 17.3303 53.3333C16.2695 53.3333 15.252 52.9119 14.5019 52.1618C13.7517 51.4116 13.3303 50.3942 13.3303 49.3333V44L13.333 43.928C10.9171 41.7681 9.21395 38.9254 8.44909 35.7763C7.68423 32.6271 7.89367 29.32 9.04968 26.2925C10.2057 23.265 12.2538 20.6599 14.9229 18.822C17.592 16.9841 20.7563 16 23.997 16H30.6637L42.6637 8H42.6663Z" stroke="#A21CAF" stroke-width="4" stroke-linecap="round" stroke-linejoin="round"/>
</g>
<defs>
<clipPath id="clip0_1_14116">
<rect width="64" height="64" fill="white"/>
</clipPath>
</defs>
</svg>
